<svg width="512" height="512" viewBox="0 0 512 512" xmlns="http://www.w3.org/2000/svg">
  <rect width="512" height="512" rx="112" fill="#FFFFFF" />
  <g transform="translate(41 41) scale(0.84)">
    <path d="M194.452 185.679C171.108 181.298 154.56 189.299 129.172 221.94C103.787 254.574 112.251 304.135 155.77 305.345C192.041 306.35 206.54 271.495 215.001 246.117C226.998 210.127 213.792 189.299 194.452 185.679Z" fill="#000000"/>
    <path d="M312.616 184.293C289.653 193.966 284.908 209.957 296.901 245.953C305.365 271.331 319.867 306.193 356.135 305.174C399.651 303.964 408.115 254.403 382.729 221.77C357.344 189.123 335.586 174.627 312.616 184.293Z" fill="#000000"/>
    <path d="M512 98.634C512 58.365 479.36 25.724 439.091 25.724C405.466 25.724 377.18 48.481 368.756 79.443C335.773 59.758 297.155 48.427 256 48.44C225.622 48.44 196.602 54.595 170.235 65.762C161.109 69.621 152.311 74.097 143.868 79.104C136.31 46.892 107.42 22.905 72.908 22.905C32.643 22.905 0 55.546 0 95.815C0 131.757 26.01 161.591 60.226 167.603C44.541 197.907 35.666 232.34 35.669 268.764C35.669 299.142 41.834 328.161 52.991 354.532C69.726 394.094 97.645 427.706 132.802 451.454C167.945 475.202 210.421 489.101 256 489.094C286.378 489.101 315.398 482.932 341.768 471.778C381.33 455.04 414.935 427.121 438.696 391.96C462.445 356.813 476.336 314.336 476.33 268.763C476.33 238.385 470.162 209.365 459.008 182.995C457.167 178.647 455.17 174.381 453.064 170.191C486.649 163.663 512 134.114 512 98.634ZM430.64 342.535C416.26 376.528 392.212 405.493 361.956 425.933C331.686 446.367 295.304 458.281 256 458.281C229.789 458.281 204.9 452.989 182.235 443.397C148.243 429.023 119.271 404.969 98.834 374.72C78.4 344.45 66.483 308.074 66.479 268.763C66.479 242.555 71.777 217.666 81.366 194.991C95.736 160.999 119.794 132.033 150.05 111.607C180.316 91.167 216.696 79.245 256 79.245C282.211 79.245 307.1 84.537 329.765 94.128C363.757 108.502 392.722 132.549 413.162 162.812C433.602 193.075 445.517 229.458 445.524 268.762C445.524 294.978 440.219 319.861 430.64 342.535Z" fill="#000000"/>
    <path d="M315.584 357.793C312.84 356.693 309.722 358.031 308.621 360.775C307.67 363.145 306.41 365.088 304.885 366.739C302.606 369.192 299.695 371.012 296.316 372.221C292.946 373.444 289.129 374.041 285.278 374.041C278.821 374.068 272.283 372.329 267.809 369.707C265.568 368.403 263.859 366.909 262.823 365.482C262.3 364.762 261.937 364.076 261.706 363.41C261.472 362.751 261.36 362.112 261.36 361.427V335.09C267.331 334.288 277.456 331.245 287.34 320.472C292.166 315.214 295.516 300.486 283.281 294.719C276.909 291.724 267.481 291.099 256 291.099C244.52 291.099 235.094 291.724 228.723 294.719C216.489 300.486 219.835 315.213 224.661 320.472C234.548 331.245 244.67 334.288 250.641 335.09V361.427C250.641 362.113 250.533 362.751 250.298 363.41C249.89 364.572 249.068 365.828 247.737 367.099C245.753 369.001 242.642 370.808 238.933 372.058C235.23 373.328 230.958 374.041 226.723 374.041C221.58 374.055 216.527 372.981 212.471 370.808C210.433 369.721 208.636 368.376 207.111 366.739C205.589 365.088 204.329 363.145 203.375 360.775C202.281 358.031 199.159 356.692 196.412 357.793C193.664 358.894 192.33 362.005 193.43 364.763C194.853 368.323 196.854 371.42 199.255 374.021C202.858 377.9 207.318 380.604 212.043 382.302C216.771 384.028 221.784 384.762 226.723 384.762C235.007 384.748 243.104 382.71 249.588 378.974C251.986 377.561 254.174 375.918 256.018 373.961C256.303 374.26 256.579 374.573 256.881 374.858C260.345 378.146 264.743 380.537 269.614 382.208C274.485 383.866 279.844 384.762 285.279 384.762C291.855 384.762 298.587 383.444 304.574 380.265C307.56 378.669 310.348 376.603 312.746 374.022C315.147 371.421 317.148 368.323 318.571 364.764C319.671 362.005 318.332 358.893 315.584 357.793Z" fill="#000000"/>
  </g>
</svg>
